<svg width="9" height="44" viewBox="0 0 9 44" fill="none" xmlns="http://www.w3.org/2000/svg">
<mask id="path-1-outside-1_62_138" maskUnits="userSpaceOnUse" x="-0.5" y="-1" width="10" height="46" fill="black">
<rect fill="white" x="-0.5" y="-1" width="10" height="46"/>
<path d="M8.42 0.343997V43.832H0.644V41.432H5.588V2.744H0.644V0.343997H8.42Z"/>
</mask>
<path d="M8.42 0.343997V43.832H0.644V41.432H5.588V2.744H0.644V0.343997H8.42Z" fill="white"/>
<path d="M8.42 0.343997H8.92V-0.156003H8.42V0.343997ZM8.42 43.832V44.332H8.92V43.832H8.42ZM0.644 43.832H0.144V44.332H0.644V43.832ZM0.644 41.432V40.932H0.144V41.432H0.644ZM5.588 41.432V41.932H6.088V41.432H5.588ZM5.588 2.744H6.088V2.244H5.588V2.744ZM0.644 2.744H0.144V3.244H0.644V2.744ZM0.644 0.343997V-0.156003H0.144V0.343997H0.644ZM7.92 0.343997V43.832H8.92V0.343997H7.92ZM8.42 43.332H0.644V44.332H8.42V43.332ZM1.144 43.832V41.432H0.144V43.832H1.144ZM0.644 41.932H5.588V40.932H0.644V41.932ZM6.088 41.432V2.744H5.088V41.432H6.088ZM5.588 2.244H0.644V3.244H5.588V2.244ZM1.144 2.744V0.343997H0.144V2.744H1.144ZM0.644 0.843997H8.42V-0.156003H0.644V0.843997Z" fill="#151515" mask="url(#path-1-outside-1_62_138)"/>
</svg>
